# Blender 4.4.3
# www.blender.org
o Cylinder
v 0.074000 0.000000 0.128000
v 0.035000 0.000000 0.290000
v 0.034327 -0.006828 0.290000
v 0.072578 -0.014437 0.128000
v 0.032336 -0.013394 0.290000
v 0.068367 -0.028319 0.128000
v 0.029101 -0.019445 0.290000
v 0.061529 -0.041112 0.128000
v 0.024749 -0.024749 0.290000
v 0.052326 -0.052326 0.128000
v 0.019445 -0.029101 0.290000
v 0.041112 -0.061529 0.128000
v 0.013394 -0.032336 0.290000
v 0.028319 -0.068367 0.128000
v 0.006828 -0.034328 0.290000
v 0.014437 -0.072578 0.128000
v -0.000000 -0.035000 0.290000
v -0.000000 -0.074000 0.128000
v -0.006828 -0.034328 0.290000
v -0.014437 -0.072578 0.128000
v -0.013394 -0.032336 0.290000
v -0.028319 -0.068367 0.128000
v -0.019445 -0.029101 0.290000
v -0.041112 -0.061529 0.128000
v -0.024749 -0.024749 0.290000
v -0.052326 -0.052326 0.128000
v -0.029101 -0.019445 0.290000
v -0.061529 -0.041112 0.128000
v -0.032336 -0.013394 0.290000
v -0.068367 -0.028319 0.128000
v -0.034328 -0.006828 0.290000
v -0.072578 -0.014437 0.128000
v -0.035000 0.000000 0.290000
v -0.074000 0.000000 0.128000
v -0.034328 0.006828 0.290000
v -0.072578 0.014437 0.128000
v -0.032336 0.013394 0.290000
v -0.068367 0.028319 0.128000
v -0.029101 0.019445 0.290000
v -0.061529 0.041112 0.128000
v -0.024749 0.024749 0.290000
v -0.052326 0.052326 0.128000
v -0.019445 0.029101 0.290000
v -0.041112 0.061529 0.128000
v -0.013394 0.032336 0.290000
v -0.028319 0.068367 0.128000
v -0.006828 0.034328 0.290000
v -0.014437 0.072578 0.128000
v 0.000000 0.035000 0.290000
v 0.000000 0.074000 0.128000
v 0.006828 0.034328 0.290000
v 0.014437 0.072578 0.128000
v 0.013394 0.032336 0.290000
v 0.028319 0.068367 0.128000
v 0.019445 0.029101 0.290000
v 0.041112 0.061529 0.128000
v 0.024749 0.024749 0.290000
v 0.052326 0.052326 0.128000
v 0.029101 0.019445 0.290000
v 0.061529 0.041112 0.128000
v 0.032336 0.013394 0.290000
v 0.068367 0.028319 0.128000
v 0.019775 0.019775 0.290000
v 0.015537 0.023253 0.290000
v 0.048831 0.073081 0.020000
v 0.062150 0.062150 0.020000
v 0.034327 0.006828 0.290000
v 0.072578 0.014437 0.128000
v 0.027966 0.000000 0.290000
v 0.027429 -0.005456 0.290000
v 0.025837 -0.010702 0.290000
v 0.023253 -0.015537 0.290000
v 0.019775 -0.019775 0.290000
v 0.015537 -0.023253 0.290000
v 0.010702 -0.025837 0.290000
v 0.005456 -0.027429 0.290000
v -0.000000 -0.027966 0.290000
v -0.005456 -0.027429 0.290000
v -0.010702 -0.025837 0.290000
v -0.015537 -0.023253 0.290000
v -0.019775 -0.019775 0.290000
v -0.023253 -0.015537 0.290000
v -0.025837 -0.010702 0.290000
v -0.027429 -0.005456 0.290000
v -0.027966 0.000000 0.290000
v -0.027429 0.005456 0.290000
v -0.025837 0.010702 0.290000
v -0.023253 0.015537 0.290000
v -0.019775 0.019775 0.290000
v -0.015537 0.023253 0.290000
v -0.010702 0.025837 0.290000
v -0.005456 0.027429 0.290000
v -0.000000 0.027966 0.290000
v 0.005456 0.027429 0.290000
v 0.010702 0.025837 0.290000
v 0.023253 0.015537 0.290000
v 0.025837 0.010702 0.290000
v 0.027429 0.005456 0.290000
v 0.086205 -0.017147 0.020000
v 0.087894 0.000000 0.020000
v 0.100000 0.000000 0.020000
v 0.098079 -0.019509 0.020000
v 0.081203 -0.033635 0.020000
v 0.092388 -0.038268 0.020000
v 0.073081 -0.048831 0.020000
v 0.083147 -0.055557 0.020000
v 0.062150 -0.062150 0.020000
v 0.070711 -0.070711 0.020000
v 0.048831 -0.073081 0.020000
v 0.055557 -0.083147 0.020000
v 0.033635 -0.081203 0.020000
v 0.038268 -0.092388 0.020000
v 0.017147 -0.086205 0.020000
v 0.019509 -0.098079 0.020000
v 0.000000 -0.087894 0.020000
v 0.000000 -0.100000 0.020000
v -0.017147 -0.086205 0.020000
v -0.019509 -0.098079 0.020000
v -0.033635 -0.081203 0.020000
v -0.038268 -0.092388 0.020000
v -0.048831 -0.073081 0.020000
v -0.055557 -0.083147 0.020000
v -0.062150 -0.062150 0.020000
v -0.070711 -0.070711 0.020000
v -0.073081 -0.048831 0.020000
v -0.083147 -0.055557 0.020000
v -0.081203 -0.033635 0.020000
v -0.092388 -0.038268 0.020000
v -0.086205 -0.017147 0.020000
v -0.098079 -0.019509 0.020000
v -0.087894 0.000000 0.020000
v -0.100000 0.000000 0.020000
v -0.086205 0.017147 0.020000
v -0.098079 0.019509 0.020000
v -0.081203 0.033635 0.020000
v -0.092388 0.038268 0.020000
v -0.073081 0.048831 0.020000
v -0.083147 0.055557 0.020000
v -0.062150 0.062150 0.020000
v -0.070711 0.070711 0.020000
v -0.048831 0.073081 0.020000
v -0.055557 0.083147 0.020000
v -0.033635 0.081203 0.020000
v -0.038268 0.092388 0.020000
v -0.017147 0.086205 0.020000
v -0.019509 0.098079 0.020000
v 0.000000 0.087894 0.020000
v 0.000000 0.100000 0.020000
v 0.017147 0.086205 0.020000
v 0.019509 0.098079 0.020000
v 0.033636 0.081203 0.020000
v 0.038268 0.092388 0.020000
v 0.048831 0.073081 0.020000
v 0.055557 0.083147 0.020000
v 0.062150 0.062150 0.020000
v 0.070711 0.070711 0.020000
v 0.073081 0.048831 0.020000
v 0.083147 0.055557 0.020000
v 0.081203 0.033635 0.020000
v 0.092388 0.038268 0.020000
v 0.086205 0.017147 0.020000
v 0.098079 0.019509 0.020000
v -0.081203 -0.033635 0.020000
v -0.086205 -0.017147 0.020000
v 0.086205 -0.017147 0.020000
v 0.081203 -0.033635 0.020000
v 0.073081 0.048831 0.020000
v -0.087894 0.000000 0.020000
v 0.073081 -0.048831 0.020000
v 0.081203 0.033635 0.020000
v -0.086205 0.017147 0.020000
v 0.062150 -0.062150 0.020000
v 0.086205 0.017147 0.020000
v -0.081203 0.033636 0.020000
v 0.048831 -0.073081 0.020000
v 0.087894 0.000000 0.020000
v -0.073081 0.048831 0.020000
v 0.033635 -0.081203 0.020000
v -0.062150 0.062150 0.020000
v 0.017147 -0.086205 0.020000
v -0.048831 0.073081 0.020000
v 0.000000 -0.087894 0.020000
v -0.033635 0.081203 0.020000
v -0.017147 -0.086205 0.020000
v -0.017147 0.086205 0.020000
v -0.033635 -0.081203 0.020000
v 0.000000 0.087894 0.020000
v -0.048831 -0.073081 0.020000
v 0.017147 0.086205 0.020000
v -0.062150 -0.062150 0.020000
v 0.033636 0.081203 0.020000
v -0.073081 -0.048831 0.020000
v -0.128700 -0.114560 0.011440
v -0.128700 -0.114560 0.028560
v -0.128700 0.114560 0.028560
v -0.128700 0.114560 0.011440
v 0.117260 -0.126000 0.011440
v 0.117260 -0.126000 0.028560
v -0.117260 -0.126000 0.028560
v -0.117260 -0.126000 0.011440
v 0.117260 -0.114560 0.040000
v 0.117260 0.114560 0.040000
v -0.117260 0.114560 0.040000
v -0.117260 -0.114560 0.040000
v -0.117260 0.126000 0.011440
v -0.117260 0.126000 0.028560
v 0.117260 0.126000 0.028560
v 0.117260 0.126000 0.011440
v 0.128700 0.114560 0.011440
v 0.128700 0.114560 0.028560
v 0.128700 -0.114560 0.028560
v 0.128700 -0.114560 0.011440
v -0.117260 0.114560 -0.000000
v -0.122973 0.114560 0.001528
v -0.122731 0.120031 0.003013
v -0.117260 0.120273 0.001528
v -0.127172 0.114560 0.005727
v -0.125687 0.120031 0.005969
v -0.127172 0.120273 0.011440
v -0.122973 0.124472 0.011440
v -0.122731 0.122987 0.005969
v -0.117260 0.124472 0.005727
v -0.127172 0.114560 0.034272
v -0.125687 0.120031 0.034031
v -0.127172 0.120273 0.028560
v -0.122973 0.114560 0.038472
v -0.122731 0.120031 0.036987
v -0.117260 0.120273 0.038472
v -0.117260 0.124472 0.034272
v -0.122731 0.122987 0.034031
v -0.122973 0.124472 0.028560
v 0.117260 0.114560 0.000000
v 0.117260 0.120273 0.001528
v 0.122731 0.120031 0.003013
v 0.122973 0.114560 0.001528
v 0.117260 0.124472 0.005728
v 0.122731 0.122987 0.005969
v 0.122973 0.124472 0.011440
v 0.127172 0.120273 0.011440
v 0.125687 0.120031 0.005969
v 0.127172 0.114560 0.005728
v 0.122973 0.114560 0.038472
v 0.122731 0.120031 0.036987
v 0.117260 0.120273 0.038472
v 0.127172 0.114560 0.034273
v 0.125687 0.120031 0.034031
v 0.127172 0.120273 0.028560
v 0.122973 0.124472 0.028560
v 0.122731 0.122987 0.034031
v 0.117260 0.124472 0.034273
v -0.117260 -0.114560 -0.000000
v -0.117260 -0.120273 0.001528
v -0.122731 -0.120031 0.003013
v -0.122973 -0.114560 0.001528
v -0.117260 -0.124472 0.005727
v -0.122731 -0.122987 0.005969
v -0.122973 -0.124472 0.011440
v -0.127172 -0.120273 0.011440
v -0.125687 -0.120031 0.005969
v -0.127172 -0.114560 0.005727
v -0.122973 -0.114560 0.038472
v -0.122731 -0.120031 0.036987
v -0.117260 -0.120273 0.038472
v -0.127172 -0.114560 0.034272
v -0.125687 -0.120031 0.034031
v -0.127172 -0.120273 0.028560
v -0.122973 -0.124472 0.028560
v -0.122731 -0.122987 0.034031
v -0.117260 -0.124472 0.034272
v 0.117260 -0.114560 0.000000
v 0.122973 -0.114560 0.001528
v 0.122731 -0.120031 0.003013
v 0.117260 -0.120273 0.001528
v 0.127172 -0.114560 0.005728
v 0.125687 -0.120031 0.005969
v 0.127172 -0.120273 0.011440
v 0.122973 -0.124472 0.011440
v 0.122731 -0.122987 0.005969
v 0.117260 -0.124472 0.005728
v 0.117260 -0.120273 0.038472
v 0.122731 -0.120031 0.036987
v 0.122973 -0.114560 0.038472
v 0.117260 -0.124472 0.034273
v 0.122731 -0.122987 0.034031
v 0.122973 -0.124472 0.028560
v 0.127172 -0.120273 0.028560
v 0.125687 -0.120031 0.034031
v 0.127172 -0.114560 0.034273
v -0.000000 -0.084400 0.084800
v 0.016466 -0.082778 0.084800
v 0.016136 -0.081123 0.085232
v -0.000000 -0.082712 0.085232
v -0.067000 -0.027752 0.127568
v -0.060298 -0.040290 0.127568
v 0.032298 -0.077975 0.084800
v 0.031652 -0.076416 0.085232
v -0.071127 -0.014148 0.127568
v 0.046890 -0.070176 0.084800
v 0.045952 -0.068773 0.085232
v 0.084400 0.000000 0.084800
v 0.082778 0.016466 0.084800
v 0.081123 0.016136 0.085232
v 0.082712 0.000000 0.085232
v -0.072520 0.000000 0.127568
v 0.059680 -0.059680 0.084800
v 0.058486 -0.058486 0.085232
v 0.077976 0.032298 0.084800
v 0.076416 0.031652 0.085232
v -0.071127 0.014148 0.127568
v 0.070176 -0.046890 0.084800
v 0.068773 -0.045952 0.085232
v 0.070176 0.046890 0.084800
v 0.068773 0.045952 0.085232
v -0.067000 0.027752 0.127568
v 0.077975 -0.032299 0.084800
v 0.076416 -0.031653 0.085232
v 0.059680 0.059680 0.084800
v 0.058486 0.058486 0.085232
v -0.060298 0.040290 0.127568
v 0.082778 -0.016466 0.084800
v 0.081123 -0.016136 0.085232
v 0.046890 0.070176 0.084800
v 0.045952 0.068773 0.085232
v -0.051279 0.051279 0.127568
v 0.032299 0.077975 0.084800
v 0.031653 0.076416 0.085232
v -0.040290 0.060298 0.127568
v 0.016466 0.082778 0.084800
v 0.016136 0.081123 0.085232
v -0.027752 0.067000 0.127568
v 0.000000 0.084400 0.084800
v 0.000000 0.082712 0.085232
v -0.014148 0.071127 0.127568
v -0.016466 0.082778 0.084800
v -0.016136 0.081123 0.085232
v 0.000000 0.072520 0.127568
v -0.032298 0.077976 0.084800
v -0.031652 0.076416 0.085232
v 0.014148 0.071127 0.127568
v -0.046890 0.070176 0.084800
v -0.045952 0.068773 0.085232
v 0.027752 0.067000 0.127568
v -0.016466 -0.082778 0.084800
v -0.032299 -0.077975 0.084800
v -0.046890 -0.070176 0.084800
v -0.059680 -0.059680 0.084800
v -0.070176 -0.046890 0.084800
v -0.077975 -0.032299 0.084800
v -0.082778 -0.016466 0.084800
v -0.084400 0.000000 0.084800
v -0.082778 0.016466 0.084800
v -0.077975 0.032299 0.084800
v -0.070176 0.046890 0.084800
v -0.059680 0.059680 0.084800
v 0.071127 0.014148 0.127568
v 0.072520 0.000000 0.127568
v 0.067000 0.027752 0.127568
v 0.060298 0.040290 0.127568
v 0.051279 0.051279 0.127568
v 0.040290 0.060298 0.127568
v -0.058486 0.058486 0.085232
v -0.068773 0.045952 0.085232
v -0.076416 0.031653 0.085232
v -0.081123 0.016136 0.085232
v -0.082712 0.000000 0.085232
v -0.081123 -0.016136 0.085232
v -0.076416 -0.031653 0.085232
v -0.068773 -0.045952 0.085232
v -0.058486 -0.058486 0.085232
v -0.051279 -0.051279 0.127568
v -0.045952 -0.068773 0.085232
v -0.040290 -0.060298 0.127568
v -0.031653 -0.076416 0.085232
v -0.027752 -0.067000 0.127568
v -0.016136 -0.081123 0.085232
v -0.014148 -0.071127 0.127568
v -0.000000 -0.072520 0.127568
v 0.014148 -0.071127 0.127568
v 0.027752 -0.067000 0.127568
v 0.040290 -0.060298 0.127568
v 0.051279 -0.051279 0.127568
v 0.060298 -0.040290 0.127568
v 0.067000 -0.027752 0.127568
v 0.071127 -0.014148 0.127568
vn 0.9678 -0.0953 0.2330
vn 0.9306 -0.2823 0.2330
vn 0.8577 -0.4584 0.2330
vn 0.7517 -0.6169 0.2330
vn 0.6169 -0.7517 0.2330
vn 0.4584 -0.8577 0.2330
vn 0.2823 -0.9306 0.2330
vn 0.0953 -0.9678 0.2330
vn -0.0953 -0.9678 0.2330
vn -0.2823 -0.9306 0.2330
vn -0.4584 -0.8577 0.2330
vn -0.6169 -0.7517 0.2330
vn -0.7517 -0.6169 0.2330
vn -0.8577 -0.4584 0.2330
vn -0.9306 -0.2823 0.2330
vn -0.9678 -0.0953 0.2330
vn -0.9678 0.0953 0.2330
vn -0.9306 0.2823 0.2330
vn -0.8576 0.4584 0.2330
vn -0.7517 0.6169 0.2330
vn -0.6169 0.7517 0.2330
vn -0.4584 0.8577 0.2330
vn -0.2823 0.9306 0.2330
vn -0.0953 0.9678 0.2330
vn 0.0953 0.9678 0.2330
vn 0.2823 0.9306 0.2330
vn 0.4584 0.8576 0.2330
vn 0.6169 0.7517 0.2330
vn 0.7517 0.6169 0.2330
vn 0.8577 0.4584 0.2330
vn -0.6195 -0.7548 -0.2157
vn 0.9306 0.2823 0.2330
vn 0.9678 0.0953 0.2330
vn -0.0000 -0.0000 1.0000
vn -0.0000 -0.0000 -1.0000
vn 0.9344 0.2834 -0.2157
vn -0.9344 0.2835 -0.2157
vn -0.7548 -0.6195 -0.2157
vn 0.9718 0.0957 -0.2157
vn -0.8612 0.4603 -0.2157
vn -0.8612 -0.4603 -0.2157
vn 0.9718 -0.0957 -0.2157
vn -0.7548 0.6195 -0.2157
vn -0.9344 -0.2834 -0.2157
vn 0.9344 -0.2835 -0.2157
vn -0.6195 0.7548 -0.2157
vn -0.9718 -0.0957 -0.2157
vn 0.8612 -0.4603 -0.2157
vn -0.4603 0.8612 -0.2157
vn 0.7548 -0.6195 -0.2157
vn -0.2835 0.9344 -0.2157
vn 0.6195 -0.7548 -0.2157
vn -0.0957 0.9718 -0.2157
vn 0.4603 -0.8612 -0.2157
vn 0.0957 0.9718 -0.2157
vn 0.2835 -0.9344 -0.2157
vn 0.2835 0.9344 -0.2157
vn 0.0957 -0.9718 -0.2157
vn 0.4603 0.8612 -0.2157
vn -0.0957 -0.9718 -0.2157
vn 0.6195 0.7548 -0.2157
vn -0.2835 -0.9344 -0.2157
vn 0.7548 0.6195 -0.2157
vn -0.4603 -0.8612 -0.2157
vn 0.8612 0.4603 -0.2157
vn -0.9718 0.0957 -0.2157
vn -1.0000 -0.0000 -0.0000
vn -0.0000 -1.0000 -0.0000
vn -0.0000 1.0000 -0.0000
vn 1.0000 -0.0000 -0.0000
vn -0.2502 0.2502 -0.9353
vn -0.6901 0.2178 -0.6901
vn -0.9353 0.2502 -0.2502
vn -0.6901 0.6901 -0.2178
vn -0.2502 0.9353 -0.2502
vn -0.2178 0.6901 -0.6901
vn -0.5773 0.5774 -0.5774
vn -0.9353 0.2502 0.2502
vn -0.6901 0.2178 0.6901
vn -0.2502 0.2502 0.9353
vn -0.2178 0.6901 0.6901
vn -0.2502 0.9353 0.2502
vn -0.6901 0.6901 0.2178
vn -0.5773 0.5774 0.5774
vn 0.2502 0.2502 -0.9353
vn 0.2178 0.6901 -0.6901
vn 0.2502 0.9353 -0.2502
vn 0.6901 0.6901 -0.2178
vn 0.9353 0.2502 -0.2502
vn 0.6901 0.2178 -0.6901
vn 0.5773 0.5774 -0.5774
vn 0.2502 0.2502 0.9353
vn 0.6901 0.2178 0.6901
vn 0.9353 0.2502 0.2502
vn 0.6901 0.6901 0.2178
vn 0.2502 0.9353 0.2502
vn 0.2178 0.6901 0.6901
vn 0.5773 0.5774 0.5774
vn -0.2502 -0.2502 -0.9353
vn -0.2178 -0.6901 -0.6901
vn -0.2502 -0.9353 -0.2502
vn -0.6901 -0.6901 -0.2178
vn -0.9353 -0.2502 -0.2502
vn -0.6901 -0.2178 -0.6901
vn -0.5773 -0.5774 -0.5774
vn -0.2502 -0.2502 0.9353
vn -0.6901 -0.2178 0.6901
vn -0.9353 -0.2502 0.2502
vn -0.6901 -0.6901 0.2178
vn -0.2502 -0.9353 0.2502
vn -0.2178 -0.6901 0.6901
vn -0.5773 -0.5774 0.5774
vn 0.2502 -0.2502 -0.9353
vn 0.6901 -0.2178 -0.6901
vn 0.9353 -0.2502 -0.2502
vn 0.6901 -0.6901 -0.2178
vn 0.2502 -0.9353 -0.2502
vn 0.2178 -0.6901 -0.6901
vn 0.5773 -0.5774 -0.5774
vn 0.2502 -0.2502 0.9353
vn 0.2178 -0.6901 0.6901
vn 0.2502 -0.9353 0.2502
vn 0.6901 -0.6901 0.2178
vn 0.9353 -0.2502 0.2502
vn 0.6901 -0.2178 0.6901
vn 0.5773 -0.5774 0.5774
vn -0.0000 0.2584 -0.9660
vn -0.0000 0.7071 -0.7071
vn -0.0000 0.9660 -0.2584
vn -0.9660 0.2585 -0.0000
vn -0.7071 0.7071 -0.0000
vn -0.2584 0.9660 -0.0000
vn -0.0000 0.2584 0.9660
vn -0.0000 0.7071 0.7071
vn -0.0000 0.9660 0.2584
vn 0.9660 0.2585 -0.0000
vn 0.7071 0.7071 -0.0000
vn 0.2584 0.9660 -0.0000
vn 0.2584 -0.0000 -0.9660
vn 0.7071 -0.0000 -0.7071
vn 0.9660 -0.0000 -0.2585
vn 0.2584 -0.0000 0.9660
vn 0.7071 -0.0000 0.7071
vn 0.9660 -0.0000 0.2585
vn 0.2584 -0.9660 -0.0000
vn 0.7071 -0.7071 -0.0000
vn 0.9660 -0.2585 -0.0000
vn -0.0000 -0.2584 -0.9660
vn -0.0000 -0.7071 -0.7071
vn -0.0000 -0.9660 -0.2584
vn -0.0000 -0.2584 0.9660
vn -0.0000 -0.7071 0.7071
vn -0.0000 -0.9660 0.2584
vn -0.9660 -0.2585 -0.0000
vn -0.7071 -0.7071 -0.0000
vn -0.2584 -0.9660 -0.0000
vn -0.2584 -0.0000 -0.9660
vn -0.7071 -0.0000 -0.7071
vn -0.9660 -0.0000 -0.2585
vn -0.2584 -0.0000 0.9660
vn -0.7071 -0.0000 0.7071
vn -0.9660 -0.0000 0.2585
vn 0.0244 -0.2479 0.9685
vn -0.2482 -0.1327 -0.9596
vn 0.0723 -0.2383 0.9685
vn -0.2693 -0.0817 -0.9596
vn 0.1174 -0.2197 0.9685
vn 0.2479 0.0244 0.9685
vn -0.2801 -0.0276 -0.9596
vn 0.1580 -0.1925 0.9685
vn 0.2383 0.0723 0.9685
vn -0.2801 0.0276 -0.9596
vn 0.1925 -0.1580 0.9685
vn 0.2197 0.1174 0.9685
vn -0.2693 0.0817 -0.9596
vn 0.2197 -0.1174 0.9685
vn 0.1925 0.1580 0.9685
vn -0.2482 0.1327 -0.9596
vn 0.2383 -0.0723 0.9685
vn 0.1580 0.1925 0.9685
vn -0.2176 0.1786 -0.9596
vn 0.2479 -0.0244 0.9685
vn 0.1174 0.2197 0.9685
vn -0.1785 0.2176 -0.9596
vn 0.0723 0.2383 0.9685
vn -0.1327 0.2482 -0.9596
vn 0.0244 0.2479 0.9685
vn -0.0817 0.2693 -0.9596
vn -0.0244 0.2479 0.9685
vn -0.0276 0.2801 -0.9596
vn -0.0723 0.2383 0.9685
vn 0.0276 0.2801 -0.9596
vn -0.1174 0.2197 0.9685
vn 0.0817 0.2693 -0.9596
vn -0.8577 0.4584 0.2330
vn 0.4584 0.8577 0.2330
vn -0.4584 0.8576 0.2330
vn -0.2176 -0.1786 -0.9596
vn -0.0244 -0.2479 0.9685
vn -0.1785 -0.2176 -0.9596
vn -0.0723 -0.2383 0.9685
vn -0.1327 -0.2482 -0.9596
vn -0.1174 -0.2197 0.9685
vn -0.0817 -0.2693 -0.9596
vn -0.1580 -0.1925 0.9685
vn -0.0276 -0.2801 -0.9596
vn -0.1925 -0.1580 0.9685
vn 0.0276 -0.2801 -0.9596
vn -0.2197 -0.1174 0.9685
vn 0.0817 -0.2693 -0.9596
vn -0.2383 -0.0723 0.9685
vn 0.1327 -0.2482 -0.9596
vn 0.2801 0.0276 -0.9596
vn -0.2479 -0.0244 0.9685
vn 0.1786 -0.2176 -0.9596
vn 0.2693 0.0817 -0.9596
vn -0.2479 0.0244 0.9685
vn 0.2176 -0.1786 -0.9596
vn 0.2482 0.1327 -0.9596
vn -0.2383 0.0723 0.9685
vn 0.2482 -0.1327 -0.9596
vn 0.2176 0.1786 -0.9596
vn -0.2197 0.1174 0.9685
vn 0.2694 -0.0817 -0.9596
vn 0.1785 0.2176 -0.9596
vn -0.1925 0.1580 0.9685
vn 0.2801 -0.0276 -0.9596
vn 0.1327 0.2482 -0.9596
vn -0.1580 0.1925 0.9685
vn 0.4584 -0.8576 0.2330
vn -0.4584 -0.8576 0.2330
vn -0.8576 -0.4584 0.2330
vn 0.9344 0.2835 -0.2157
vn -0.9344 -0.2835 -0.2157
vn 0.9344 -0.2834 -0.2157
vn -0.2635 0.2635 -0.9280
vn -0.9280 0.2635 -0.2635
vn -0.2635 0.9280 -0.2635
vn -0.9280 0.2635 0.2635
vn -0.2635 0.2635 0.9280
vn -0.2635 0.9280 0.2635
vn 0.2635 0.2635 -0.9280
vn 0.2635 0.9280 -0.2635
vn 0.9280 0.2635 -0.2635
vn 0.2635 0.2635 0.9280
vn 0.9280 0.2635 0.2635
vn 0.2635 0.9280 0.2635
vn -0.2635 -0.2635 -0.9280
vn -0.2635 -0.9280 -0.2635
vn -0.9280 -0.2635 -0.2635
vn -0.2635 -0.2635 0.9280
vn -0.9280 -0.2635 0.2635
vn -0.2635 -0.9280 0.2635
vn 0.2635 -0.2635 -0.9280
vn 0.9280 -0.2635 -0.2635
vn 0.2635 -0.9280 -0.2635
vn 0.2635 -0.2635 0.9280
vn 0.2635 -0.9280 0.2635
vn 0.9280 -0.2635 0.2635
vn -0.2176 0.1785 -0.9596
vn -0.1786 0.2176 -0.9596
vn -0.1174 0.2196 0.9685
vn 0.8576 -0.4584 0.2330
vn 0.8576 0.4584 0.2330
vn -0.1786 -0.2176 -0.9596
vn 0.1785 -0.2176 -0.9596
vn 0.2176 0.1785 -0.9596
vn 0.2693 -0.0817 -0.9596
vn 0.1786 0.2176 -0.9596
vt 0.343744 0.894076
vt 0.320364 0.679350
vt 0.355648 0.892961
vt 0.364512 0.891542
vt 0.324557 0.678680
vt 0.369995 0.889874
vt 0.817768 0.005351
vt 0.767776 0.216170
vt 0.810104 0.003852
vt 0.799259 0.002539
vt 0.762647 0.215548
vt 0.785650 0.001461
vt 0.756210 0.215039
vt 0.769799 0.000660
vt 0.748713 0.214660
vt 0.752317 0.000167
vt 0.731722 0.214348
vt 0.733874 0.000000
vt 0.715180 0.000167
vt 0.722880 0.214426
vt 0.696953 0.000660
vt 0.714259 0.214660
vt 0.679893 0.001461
vt 0.698983 0.215548
vt 0.664657 0.002539
vt 0.651829 0.003852
vt 0.692916 0.216170
vt 0.641902 0.005351
vt 0.039692 0.679672
vt 0.011879 0.893859
vt 0.000000 0.892494
vt 0.052154 0.680824
vt 0.026348 0.894931
vt 0.042850 0.895669
vt 0.068426 0.681352
vt 0.060752 0.896046
vt 0.077230 0.681352
vt 0.079365 0.896046
vt 0.097975 0.895669
vt 0.086032 0.681174
vt 0.115866 0.894931
vt 0.094494 0.680824
vt 0.132350 0.893858
vt 0.102291 0.680317
vt 0.146795 0.892494
vt 0.208886 0.889874
vt 0.257766 0.678680
vt 0.223299 0.891542
vt 0.265551 0.679350
vt 0.239757 0.892961
vt 0.257629 0.894076
vt 0.274004 0.679878
vt 0.276227 0.894843
vt 0.282800 0.680241
vt 0.294836 0.895235
vt 0.300071 0.680426
vt 0.312742 0.895235
vt 0.081382 0.331255
vt 0.065387 0.674100
vt 0.045124 0.675051
vt 0.329256 0.894843
vt 0.307881 0.680241
vt 0.714680 0.285235
vt 0.715435 0.297345
vt 0.709682 0.290275
vt 0.726604 0.283619
vt 0.721690 0.291037
vt 0.721311 0.272722
vt 0.718606 0.279308
vt 0.731715 0.266628
vt 0.729989 0.275377
vt 0.722690 0.258603
vt 0.722690 0.265731
vt 0.729989 0.248957
vt 0.731715 0.257707
vt 0.718607 0.245026
vt 0.721311 0.251612
vt 0.721690 0.233297
vt 0.726604 0.240715
vt 0.709682 0.234059
vt 0.714680 0.239099
vt 0.708080 0.222033
vt 0.715435 0.226989
vt 0.703805 0.230099
vt 0.699907 0.218619
vt 0.697275 0.227371
vt 0.691231 0.216879
vt 0.683274 0.225980
vt 0.690343 0.225980
vt 0.673710 0.218619
vt 0.682386 0.216878
vt 0.669812 0.230098
vt 0.676342 0.227371
vt 0.658182 0.226989
vt 0.665537 0.222033
vt 0.658937 0.239099
vt 0.663935 0.234059
vt 0.655010 0.245026
vt 0.651927 0.233297
vt 0.652306 0.251612
vt 0.647013 0.240715
vt 0.641902 0.257707
vt 0.643628 0.248957
vt 0.650927 0.265731
vt 0.650927 0.258603
vt 0.643628 0.275377
vt 0.641902 0.266628
vt 0.655010 0.279308
vt 0.652306 0.272722
vt 0.658937 0.285235
vt 0.647013 0.283619
vt 0.663935 0.290276
vt 0.651927 0.291037
vt 0.665537 0.302301
vt 0.658182 0.297345
vt 0.676342 0.296964
vt 0.669812 0.294236
vt 0.682386 0.307456
vt 0.673710 0.305715
vt 0.683274 0.298354
vt 0.691231 0.307456
vt 0.690342 0.298354
vt 0.699907 0.305715
vt 0.697275 0.296964
vt 0.708080 0.302301
vt 0.703805 0.294236
vt 0.641319 0.448897
vt 0.656853 0.472843
vt 0.641319 0.471300
vt 0.651922 0.497842
vt 0.636986 0.493273
vt 0.642250 0.521391
vt 0.628485 0.513971
vt 0.628209 0.542584
vt 0.616143 0.532598
vt 0.610337 0.560608
vt 0.600436 0.548440
vt 0.581965 0.560886
vt 0.589323 0.574768
vt 0.561442 0.569459
vt 0.565973 0.584523
vt 0.539655 0.573830
vt 0.541185 0.589495
vt 0.515911 0.589495
vt 0.517441 0.573830
vt 0.491123 0.584523
vt 0.495654 0.569459
vt 0.467773 0.574769
vt 0.475131 0.560886
vt 0.446759 0.560608
vt 0.456661 0.548440
vt 0.428888 0.542584
vt 0.440953 0.532598
vt 0.428611 0.513971
vt 0.414846 0.521391
vt 0.420111 0.493273
vt 0.405174 0.497843
vt 0.415777 0.471301
vt 0.400244 0.472844
vt 0.415777 0.448898
vt 0.400244 0.447355
vt 0.420110 0.426925
vt 0.405174 0.422356
vt 0.428611 0.406227
vt 0.414846 0.398807
vt 0.440953 0.387600
vt 0.428887 0.377614
vt 0.446759 0.359591
vt 0.456660 0.371758
vt 0.467773 0.345430
vt 0.475131 0.359312
vt 0.491123 0.335676
vt 0.495654 0.350739
vt 0.517441 0.346368
vt 0.515911 0.330703
vt 0.541185 0.330703
vt 0.539655 0.346368
vt 0.565973 0.335675
vt 0.561442 0.350739
vt 0.581965 0.359312
vt 0.589323 0.345430
vt 0.610337 0.359590
vt 0.600436 0.371759
vt 0.628209 0.377614
vt 0.616143 0.387600
vt 0.642250 0.398807
vt 0.628485 0.406227
vt 0.651922 0.422356
vt 0.636986 0.426925
vt 0.656853 0.447354
vt 0.310667 0.330851
vt 0.276888 0.671524
vt 0.257273 0.671989
vt 0.753584 0.331124
vt 0.780313 0.672433
vt 0.747348 0.330845
vt 0.027027 0.676332
vt 0.075623 0.331662
vt 0.240066 0.672900
vt 0.305192 0.331141
vt 0.759050 0.671986
vt 0.740582 0.330703
vt 0.070775 0.332159
vt 0.011790 0.677892
vt 0.225926 0.674224
vt 0.300693 0.331562
vt 0.736942 0.671986
vt 0.733548 0.330703
vt 0.000000 0.679672
vt 0.067024 0.332725
vt 0.297343 0.332098
vt 0.215398 0.675909
vt 0.714838 0.672433
vt 0.726515 0.330845
vt 0.763542 0.332045
vt 0.817099 0.674584
vt 0.759052 0.331530
vt 0.295271 0.332729
vt 0.208886 0.677891
vt 0.693588 0.673311
vt 0.719753 0.331124
vt 0.133487 0.332725
vt 0.199782 0.677892
vt 0.130591 0.332159
vt 0.674009 0.674584
vt 0.713524 0.331530
vt 0.126492 0.331662
vt 0.186901 0.676332
vt 0.656853 0.676205
vt 0.708065 0.332045
vt 0.170736 0.675051
vt 0.121349 0.331255
vt 0.350711 0.332098
vt 0.400244 0.677891
vt 0.383125 0.675909
vt 0.151910 0.674100
vt 0.115359 0.330952
vt 0.344490 0.331562
vt 0.363576 0.674224
vt 0.131145 0.673514
vt 0.108752 0.330766
vt 0.342349 0.672900
vt 0.337737 0.331141
vt 0.109240 0.673316
vt 0.101782 0.330703
vt 0.320259 0.671989
vt 0.330708 0.330851
vt 0.087036 0.673514
vt 0.094717 0.330766
vt 0.323675 0.330703
vt 0.298156 0.671524
vt 0.087829 0.330952
vt 0.316908 0.330703
vt 0.799914 0.673311
vt 0.885447 0.228900
vt 0.841982 0.439502
vt 0.863490 0.228875
vt 0.954105 0.989492
vt 0.973206 0.694419
vt 0.976075 0.988733
vt 0.012779 0.317816
vt 0.308172 0.012887
vt 0.308172 0.317816
vt 0.863915 0.460563
vt 0.863486 0.676180
vt 0.841958 0.460538
vt 0.985699 0.451461
vt 0.970467 0.661554
vt 0.963795 0.449919
vt 0.333730 0.325243
vt 0.326365 0.317816
vt 0.333730 0.317816
vt 0.333730 0.330703
vt 0.326677 0.324929
vt 0.841586 0.446159
vt 0.834796 0.440899
vt 0.834722 0.452730
vt 0.834728 0.447294
vt 0.834775 0.459125
vt 0.841577 0.453881
vt 0.322865 0.324929
vt 0.320951 0.317816
vt 0.831208 0.450008
vt 0.871406 0.440941
vt 0.863543 0.446184
vt 0.863939 0.439528
vt 0.874782 0.450058
vt 0.870719 0.447335
vt 0.005414 0.012887
vt 0.012779 0.005460
vt 0.012779 0.012887
vt 0.871385 0.459167
vt 0.877165 0.455313
vt 0.863534 0.453906
vt 0.870712 0.452771
vt 0.326365 0.012887
vt 0.333730 0.005460
vt 0.333730 0.012887
vt 0.320951 0.012887
vt 0.326677 0.005774
vt 0.964401 0.435548
vt 0.957984 0.429831
vt 0.965248 0.428934
vt 0.963867 0.443251
vt 0.957482 0.436206
vt 0.956725 0.448012
vt 0.333730 0.000000
vt 0.326677 0.001930
vt 0.953786 0.438671
vt 0.957107 0.441629
vt 0.012779 0.325243
vt 0.005414 0.317816
vt 0.993246 0.450584
vt 0.997254 0.441731
vt 0.999275 0.447138
vt 0.985771 0.444793
vt 0.993385 0.438734
vt 0.993010 0.444157
vt 0.994505 0.432403
vt 0.986305 0.437090
vt 0.987152 0.430476
vt 1.000000 0.436660
vt 0.636488 0.317816
vt 0.629123 0.325243
vt 0.629123 0.317816
vt 0.641902 0.317816
vt 0.636176 0.324929
vt 0.972947 0.686735
vt 0.980348 0.693650
vt 0.972378 0.680049
vt 0.979788 0.686295
vt 0.979004 0.677870
vt 0.971655 0.676205
vt 0.629123 0.330703
vt 0.636176 0.328773
vt 0.983217 0.685167
vt 0.979387 0.681588
vt 0.308172 0.005460
vt 0.315537 0.012887
vt 0.308172 0.000000
vt 0.315225 0.005774
vt 0.950408 0.680809
vt 0.942373 0.679136
vt 0.949685 0.676965
vt 0.943777 0.687540
vt 0.943376 0.682833
vt 0.943717 0.694917
vt 0.950977 0.687494
vt 0.951236 0.695179
vt 0.937810 0.693687
vt 0.939618 0.686674
vt 0.629123 0.005460
vt 0.636488 0.012887
vt 0.629123 0.012887
vt 0.629123 0.000000
vt 0.636176 0.005774
vt 0.970872 0.665438
vt 0.963397 0.659647
vt 0.975489 0.999240
vt 0.982790 0.994340
vt 0.982462 0.997053
vt 0.983217 0.987964
vt 0.975956 0.995387
vt 0.639988 0.005774
vt 0.641902 0.012887
vt 0.636176 0.001930
vt 0.315537 0.317816
vt 0.308172 0.325243
vt 0.315225 0.324929
vt 0.953986 0.996146
vt 0.946586 0.989231
vt 0.953520 1.000000
vt 0.946780 0.995585
vt 0.999918 0.662219
vt 0.992776 0.666981
vt 0.992371 0.663096
vt 0.308172 0.330703
vt 0.315225 0.328773
vt 0.319037 0.324929
vt 0.856303 0.674767
vt 0.000000 0.012887
vt 0.892914 0.674809
vt 0.012779 0.330703
vt 0.940679 0.988001
vt 0.856303 0.230272
vt 0.892914 0.230314
vt 0.457239 0.601924
vt 0.440883 0.615573
vt 0.439503 0.613876
vt 0.779492 0.864032
vt 0.760962 0.865796
vt 0.778939 0.862190
vt 0.477578 0.595792
vt 0.458265 0.603860
vt 0.742447 0.867711
vt 0.761149 0.867711
vt 0.476946 0.593692
vt 0.498081 0.591679
vt 0.604497 0.646975
vt 0.590964 0.630481
vt 0.592646 0.629088
vt 0.724103 0.864032
vt 0.742634 0.865796
vt 0.497867 0.589495
vt 0.518985 0.591679
vt 0.610578 0.667487
vt 0.602578 0.648010
vt 0.706824 0.856814
vt 0.724657 0.862190
vt 0.540119 0.593692
vt 0.519198 0.589495
vt 0.612660 0.666850
vt 0.614656 0.688164
vt 0.691274 0.846335
vt 0.707724 0.855116
vt 0.559827 0.601925
vt 0.539488 0.595792
vt 0.616822 0.687949
vt 0.614656 0.709247
vt 0.679524 0.831777
vt 0.692484 0.844847
vt 0.577563 0.613876
vt 0.558801 0.603860
vt 0.616822 0.709462
vt 0.610578 0.729924
vt 0.667658 0.817314
vt 0.678049 0.832997
vt 0.576182 0.615573
vt 0.604497 0.750436
vt 0.612660 0.730561
vt 0.660501 0.799888
vt 0.669341 0.816407
vt 0.592646 0.768323
vt 0.602578 0.749402
vt 0.658751 0.781200
vt 0.662327 0.799330
vt 0.576182 0.781838
vt 0.590964 0.766931
vt 0.656853 0.762527
vt 0.656853 0.781389
vt 0.559827 0.795487
vt 0.577563 0.783535
vt 0.662327 0.744587
vt 0.658751 0.762716
vt 0.539488 0.801619
vt 0.558801 0.793551
vt 0.660501 0.744028
vt 0.669341 0.727509
vt 0.519198 0.807916
vt 0.540119 0.803719
vt 0.667658 0.726602
vt 0.679524 0.712140
vt 0.904278 0.172089
vt 0.820815 0.200016
vt 0.819322 0.183791
vt 0.905538 0.185782
vt 0.822716 0.212096
vt 0.907143 0.195978
vt 0.824951 0.219568
vt 0.937810 0.694910
vt 0.851905 0.686650
vt 0.853913 0.676205
vt 0.934630 0.716200
vt 0.850145 0.701431
vt 0.933411 0.731854
vt 0.848700 0.719978
vt 0.932505 0.750086
vt 0.847627 0.741580
vt 0.846966 0.765406
vt 0.931947 0.770195
vt 0.846743 0.790540
vt 0.931759 0.791408
vt 0.846966 0.816017
vt 0.931947 0.812911
vt 0.847627 0.840858
vt 0.932505 0.833877
vt 0.848700 0.864108
vt 0.933411 0.853500
vt 0.850145 0.884873
vt 0.936115 0.885781
vt 0.851905 0.902356
vt 0.937810 0.897199
vt 0.853913 0.915885
vt 0.892914 0.412922
vt 0.979153 0.412745
vt 0.977324 0.428934
vt 0.894457 0.399258
vt 0.980590 0.393026
vt 0.895670 0.382616
vt 0.981579 0.370536
vt 0.896931 0.343042
vt 0.982084 0.346138
vt 0.896931 0.321632
vt 0.982084 0.320771
vt 0.896505 0.300227
vt 0.981579 0.295409
vt 0.980590 0.271026
vt 0.895670 0.279648
vt 0.979153 0.248561
vt 0.894457 0.260687
vt 0.977324 0.228875
vt 0.909029 0.016969
vt 0.822716 0.019643
vt 0.824951 0.000000
vt 0.907143 0.033547
vt 0.820815 0.042074
vt 0.905538 0.052479
vt 0.819322 0.066430
vt 0.904278 0.073036
vt 0.818293 0.091776
vt 0.903410 0.094428
vt 0.817768 0.117138
vt 0.902967 0.115833
vt 0.817768 0.141541
vt 0.902967 0.136429
vt 0.818293 0.164047
vt 0.903410 0.155424
vt 0.897742 0.480490
vt 0.952501 0.458526
vt 0.953352 0.474857
vt 0.898123 0.496812
vt 0.953786 0.493472
vt 0.953786 0.513656
vt 0.953352 0.534634
vt 0.898123 0.514509
vt 0.896996 0.551282
vt 0.952501 0.555598
vt 0.895913 0.568945
vt 0.951266 0.575744
vt 0.949694 0.594296
vt 0.947845 0.610543
vt 0.894535 0.585212
vt 0.458002 0.949184
vt 0.404180 0.973389
vt 0.402668 0.957107
vt 0.401479 0.938525
vt 0.456243 0.915210
vt 0.400661 0.918358
vt 0.455877 0.896817
vt 0.400244 0.897380
vt 0.455877 0.878421
vt 0.400244 0.876398
vt 0.400661 0.856218
vt 0.456961 0.844418
vt 0.401479 0.837616
vt 0.458002 0.830118
vt 0.402668 0.821306
vt 0.459329 0.818377
vt 0.404180 0.807916
vt 0.206082 0.855897
vt 0.152725 0.877915
vt 0.151064 0.866726
vt 0.149609 0.852265
vt 0.148414 0.835090
vt 0.204805 0.843218
vt 0.147526 0.815859
vt 0.203758 0.828159
vt 0.202500 0.793284
vt 0.146979 0.795313
vt 0.146795 0.774240
vt 0.146979 0.753451
vt 0.202339 0.774808
vt 0.147526 0.733744
vt 0.202500 0.756580
vt 0.203758 0.723636
vt 0.148414 0.715877
vt 0.149609 0.700536
vt 0.151064 0.688311
vt 0.204805 0.710185
vt 0.207538 0.691892
vt 0.152725 0.679672
vt 0.894535 0.445645
vt 0.947845 0.428934
vt 0.949694 0.435115
vt 0.895913 0.454406
vt 0.951266 0.445106
vt 0.796771 0.856814
vt 0.795872 0.855116
vt 0.424419 0.629088
vt 0.426101 0.630480
vt 0.812322 0.846335
vt 0.811112 0.844847
vt 0.414488 0.648009
vt 0.412568 0.646975
vt 0.825547 0.832997
vt 0.824072 0.831776
vt 0.406488 0.667487
vt 0.404405 0.666850
vt 0.835937 0.817314
vt 0.834255 0.816407
vt 0.402409 0.688164
vt 0.400244 0.687949
vt 0.843094 0.799888
vt 0.841268 0.799330
vt 0.400244 0.709462
vt 0.402409 0.709247
vt 0.846743 0.781389
vt 0.844844 0.781200
vt 0.404405 0.730561
vt 0.406488 0.729924
vt 0.844844 0.762716
vt 0.846743 0.762527
vt 0.412568 0.750436
vt 0.414487 0.749401
vt 0.843094 0.744028
vt 0.841268 0.744587
vt 0.779492 0.679885
vt 0.760962 0.678120
vt 0.761149 0.676205
vt 0.426101 0.766931
vt 0.424419 0.768323
vt 0.835937 0.726602
vt 0.834254 0.727509
vt 0.742634 0.678120
vt 0.742447 0.676205
vt 0.440883 0.781838
vt 0.439502 0.783535
vt 0.824072 0.712140
vt 0.825547 0.710919
vt 0.724103 0.679885
vt 0.724657 0.681726
vt 0.458264 0.793551
vt 0.457238 0.795486
vt 0.811111 0.699069
vt 0.812322 0.697582
vt 0.706824 0.687103
vt 0.707724 0.688800
vt 0.477577 0.801619
vt 0.476946 0.803719
vt 0.796771 0.687103
vt 0.795872 0.688800
vt 0.691274 0.697582
vt 0.692484 0.699069
vt 0.497867 0.807916
vt 0.498080 0.805732
vt 0.778938 0.681726
vt 0.678049 0.710919
vt 0.518985 0.805732
vt 0.314734 0.679878
vt 0.327150 0.677891
vt 0.771401 0.216878
vt 0.740444 0.214427
vt 0.706190 0.215039
vt 0.688221 0.216878
vt 0.045311 0.680317
vt 0.059959 0.681174
vt 0.109122 0.679672
vt 0.250949 0.677891
vt 0.291602 0.680426
vt 0.831208 0.676205
vt 0.208885 0.679672
vt 0.356158 0.332729
vt 0.885444 0.676205
vt 0.326677 0.328773
vt 0.877177 0.444809
vt 0.005726 0.005774
vt 0.322865 0.005774
vt 0.005726 0.324929
vt 0.639988 0.324929
vt 0.315225 0.001930
vt 0.964097 0.663370
vt 0.946451 0.998298
vt 1.000000 0.665898
vt 0.000000 0.317816
vt 0.012779 0.000000
vt 0.909029 0.202284
vt 0.936115 0.703726
vt 0.934630 0.871026
vt 0.896505 0.363634
vt 0.892914 0.244072
vt 0.896996 0.466172
vt 0.897742 0.532901
vt 0.892914 0.599457
vt 0.459329 0.963460
vt 0.456961 0.932892
vt 0.456243 0.860728
vt 0.207538 0.865708
vt 0.202980 0.811298
vt 0.202980 0.739302
vt 0.206082 0.699467
vt 0.892914 0.440226
s 0
f 1/1/1 3/2/1 4/3/1
f 3/2/2 6/4/2 4/3/2
f 5/5/3 8/6/3 6/4/3
f 8/7/4 9/8/4 10/9/4
f 9/8/5 12/10/5 10/9/5
f 11/11/6 14/12/6 12/10/6
f 13/13/7 16/14/7 14/12/7
f 15/15/8 18/16/8 16/14/8
f 18/16/9 19/17/9 20/18/9
f 19/17/10 22/19/10 20/18/10
f 21/20/11 24/21/11 22/19/11
f 23/22/12 26/23/12 24/21/12
f 26/23/13 27/24/13 28/25/13
f 27/24/14 30/26/14 28/25/14
f 29/27/15 32/28/15 30/26/15
f 31/29/16 34/30/16 32/31/16
f 34/30/17 35/32/17 36/33/17
f 35/32/18 38/34/18 36/33/18
f 38/34/19 39/35/19 40/36/19
f 40/36/20 41/37/20 42/38/20
f 41/37/21 44/39/21 42/38/21
f 43/40/22 46/41/22 44/39/22
f 45/42/23 48/43/23 46/41/23
f 47/44/24 50/45/24 48/43/24
f 50/46/25 51/47/25 52/48/25
f 52/48/26 53/49/26 54/50/26
f 53/49/27 56/51/27 54/50/27
f 55/52/28 58/53/28 56/51/28
f 57/54/29 60/55/29 58/53/29
f 60/55/30 61/56/30 62/57/30
f 63/58/31 65/59/31 66/60/31
f 61/56/32 68/61/32 62/57/32
f 67/62/33 1/1/33 68/61/33
f 70/63/34 2/64/34 69/65/34
f 70/63/34 5/66/34 3/67/34
f 72/68/34 5/66/34 71/69/34
f 72/68/34 9/70/34 7/71/34
f 74/72/34 9/70/34 73/73/34
f 74/72/34 13/74/34 11/75/34
f 76/76/34 13/74/34 75/77/34
f 76/76/34 17/78/34 15/79/34
f 78/80/34 17/78/34 77/81/34
f 78/80/34 21/82/34 19/83/34
f 79/84/34 23/85/34 21/82/34
f 80/86/34 25/87/34 23/85/34
f 82/88/34 25/87/34 81/89/34
f 82/88/34 29/90/34 27/91/34
f 84/92/34 29/90/34 83/93/34
f 84/92/34 33/94/34 31/95/34
f 86/96/34 33/94/34 85/97/34
f 87/98/34 35/99/34 86/96/34
f 88/100/34 37/101/34 87/98/34
f 88/100/34 41/102/34 39/103/34
f 90/104/34 41/102/34 89/105/34
f 90/104/34 45/106/34 43/107/34
f 92/108/34 45/106/34 91/109/34
f 93/110/34 47/111/34 92/108/34
f 94/112/34 49/113/34 93/110/34
f 94/112/34 53/114/34 51/115/34
f 64/116/34 53/114/34 95/117/34
f 64/116/34 57/118/34 55/119/34
f 63/120/34 59/121/34 57/118/34
f 96/122/34 61/123/34 59/121/34
f 97/124/34 67/125/34 61/123/34
f 98/126/34 2/64/34 67/125/34
f 100/127/35 102/128/35 99/129/35
f 99/129/35 104/130/35 103/131/35
f 103/131/35 106/132/35 105/133/35
f 105/133/35 108/134/35 107/135/35
f 107/135/35 110/136/35 109/137/35
f 111/138/35 110/136/35 112/139/35
f 113/140/35 112/139/35 114/141/35
f 115/142/35 114/141/35 116/143/35
f 115/142/35 118/144/35 117/145/35
f 117/145/35 120/146/35 119/147/35
f 119/147/35 122/148/35 121/149/35
f 121/149/35 124/150/35 123/151/35
f 123/151/35 126/152/35 125/153/35
f 127/154/35 126/152/35 128/155/35
f 129/156/35 128/155/35 130/157/35
f 131/158/35 130/157/35 132/159/35
f 133/160/35 132/159/35 134/161/35
f 135/162/35 134/161/35 136/163/35
f 137/164/35 136/163/35 138/165/35
f 139/166/35 138/165/35 140/167/35
f 139/166/35 142/168/35 141/169/35
f 141/169/35 144/170/35 143/171/35
f 143/171/35 146/172/35 145/173/35
f 147/174/35 146/172/35 148/175/35
f 147/174/35 150/176/35 149/177/35
f 149/177/35 152/178/35 151/179/35
f 153/180/35 152/178/35 154/181/35
f 153/180/35 156/182/35 155/183/35
f 155/183/35 158/184/35 157/185/35
f 157/185/35 160/186/35 159/187/35
f 159/187/35 162/188/35 161/189/35
f 161/189/35 101/190/35 100/127/35
f 84/191/36 163/192/36 164/193/36
f 70/194/37 166/195/37 71/196/37
f 63/58/38 167/197/38 96/198/38
f 84/191/39 168/199/39 85/200/39
f 71/196/40 169/201/40 72/202/40
f 97/203/41 167/197/41 170/204/41
f 85/200/42 171/205/42 86/206/42
f 72/202/43 172/207/43 73/208/43
f 97/203/44 173/209/44 98/210/44
f 87/211/45 171/205/45 174/212/45
f 73/208/46 175/213/46 74/214/46
f 98/215/47 176/216/47 69/217/47
f 88/218/48 174/212/48 177/219/48
f 74/214/49 178/220/49 75/221/49
f 88/222/50 179/223/50 89/224/50
f 75/221/51 180/225/51 76/226/51
f 90/227/52 179/223/52 181/228/52
f 76/226/53 182/229/53 77/230/53
f 90/227/54 183/231/54 91/232/54
f 78/233/55 182/234/55 184/235/55
f 91/232/56 185/236/56 92/237/56
f 79/238/57 184/235/57 186/239/57
f 92/237/58 187/240/58 93/241/58
f 79/238/59 188/242/59 80/243/59
f 93/241/60 189/244/60 94/245/60
f 80/243/61 190/246/61 81/247/61
f 94/245/62 191/248/62 95/249/62
f 82/250/63 190/246/63 192/251/63
f 64/252/64 191/248/64 65/59/64
f 83/253/65 192/251/65 163/192/65
f 70/194/66 176/216/66 165/254/66
f 194/255/67 196/256/67 193/257/67
f 198/258/68 200/259/68 197/260/68
f 202/261/34 204/262/34 201/263/34
f 206/264/69 208/265/69 205/266/69
f 210/267/70 212/268/70 209/269/70
f 214/270/71 216/271/71 213/272/71
f 217/273/72 215/274/72 214/270/72
f 219/275/73 217/276/73 196/256/73
f 219/275/74 221/277/74 218/278/74
f 222/279/75 220/280/75 205/266/75
f 216/271/76 221/281/76 222/282/76
f 215/283/77 218/278/77 221/277/77
f 223/284/78 225/285/78 195/286/78
f 223/284/79 227/287/79 224/288/79
f 228/289/80 226/290/80 203/291/80
f 229/292/81 227/287/81 228/293/81
f 231/294/82 229/292/82 206/264/82
f 225/285/83 230/295/83 231/294/83
f 224/288/84 227/287/84 230/295/84
f 233/296/85 235/297/85 232/298/85
f 236/299/86 234/300/86 233/296/86
f 238/301/87 236/302/87 208/303/87
f 239/304/88 237/305/88 238/301/88
f 241/306/89 239/304/89 209/269/89
f 241/307/90 234/300/90 240/308/90
f 234/309/91 237/305/91 240/310/91
f 242/311/92 244/312/92 202/261/92
f 245/313/93 243/314/93 242/315/93
f 247/316/94 245/313/94 210/267/94
f 247/316/95 249/317/95 246/318/95
f 250/319/96 248/320/96 207/321/96
f 244/322/97 249/317/97 250/319/97
f 243/314/98 246/318/98 249/317/98
f 252/323/99 254/324/99 251/325/99
f 255/326/100 253/327/100 252/323/100
f 257/328/101 255/329/101 200/259/101
f 258/330/102 256/331/102 257/328/102
f 260/332/103 258/330/103 193/333/103
f 260/334/104 253/327/104 259/335/104
f 253/336/105 256/331/105 259/337/105
f 261/338/106 263/339/106 204/262/106
f 264/340/107 262/341/107 261/338/107
f 266/342/108 264/343/108 194/344/108
f 266/342/109 268/345/109 265/346/109
f 269/347/110 267/348/110 199/349/110
f 263/350/111 268/345/111 269/347/111
f 262/351/112 265/346/112 268/345/112
f 271/352/113 273/353/113 270/354/113
f 274/355/114 272/356/114 271/352/114
f 276/357/115 274/358/115 212/268/115
f 276/359/116 278/360/116 275/361/116
f 279/362/117 277/363/117 197/260/117
f 273/353/118 278/364/118 279/365/118
f 272/356/119 275/366/119 278/364/119
f 280/367/120 282/368/120 201/263/120
f 283/282/121 281/369/121 280/367/121
f 285/370/122 283/371/122 198/258/122
f 286/372/123 284/373/123 285/370/123
f 288/374/124 286/375/124 211/376/124
f 288/377/125 281/369/125 287/378/125
f 281/369/126 284/379/126 287/378/126
f 213/272/127 233/296/127 232/298/127
f 216/271/128 236/299/128 233/296/128
f 222/279/129 208/265/129 236/380/129
f 195/286/130 219/275/130 196/256/130
f 225/285/131 220/280/131 219/275/131
f 231/294/132 205/266/132 220/280/132
f 202/261/133 228/289/133 203/291/133
f 244/312/134 229/381/134 228/289/134
f 250/382/135 206/264/135 229/292/135
f 209/269/136 247/316/136 210/267/136
f 239/304/137 248/320/137 247/316/137
f 238/301/138 207/321/138 248/320/138
f 232/298/139 271/352/139 270/354/139
f 235/297/140 274/355/140 271/352/140
f 241/306/141 212/268/141 274/358/141
f 201/263/142 242/311/142 202/261/142
f 282/368/143 245/383/143 242/311/143
f 288/374/144 210/267/144 245/313/144
f 197/260/145 285/370/145 198/258/145
f 277/363/146 286/372/146 285/370/146
f 276/357/147 211/376/147 286/375/147
f 270/354/148 252/323/148 251/325/148
f 273/353/149 255/326/149 252/323/149
f 279/362/150 200/259/150 255/329/150
f 204/262/151 280/367/151 201/263/151
f 263/350/152 283/371/152 280/384/152
f 269/347/153 198/258/153 283/371/153
f 193/333/154 266/342/154 194/344/154
f 258/330/155 267/348/155 266/342/155
f 257/328/156 199/349/156 267/348/156
f 251/325/157 214/270/157 213/272/157
f 254/324/158 217/273/158 214/270/158
f 260/385/159 196/256/159 217/276/159
f 203/291/160 261/338/160 204/262/160
f 226/290/161 264/340/161 261/338/161
f 223/284/162 194/255/162 264/386/162
f 270/354/35 213/272/35 232/298/35
f 290/387/163 292/388/163 289/389/163
f 28/390/164 293/391/164 294/392/164
f 290/387/165 296/393/165 291/394/165
f 32/395/166 293/391/166 30/396/166
f 295/397/167 299/398/167 296/393/167
f 301/399/168 303/400/168 300/401/168
f 34/402/169 297/403/169 32/395/169
f 298/404/170 306/405/170 299/398/170
f 301/399/171 308/406/171 302/407/171
f 36/408/172 304/409/172 34/402/172
f 310/410/173 306/405/173 305/411/173
f 307/412/174 313/413/174 308/406/174
f 38/414/175 309/415/175 36/408/175
f 315/416/176 311/417/176 310/410/176
f 312/418/177 318/419/177 313/413/177
f 38/414/178 319/420/178 314/421/178
f 320/422/179 316/423/179 315/416/179
f 317/424/180 323/425/180 318/419/180
f 42/426/181 319/420/181 40/427/181
f 320/422/182 303/400/182 321/428/182
f 325/429/183 323/425/183 322/430/183
f 44/431/184 324/432/184 42/426/184
f 328/433/185 326/434/185 325/429/185
f 44/431/186 330/435/186 327/436/186
f 328/433/187 332/437/187 329/438/187
f 48/439/188 330/435/188 46/440/188
f 334/441/189 332/437/189 331/442/189
f 48/439/190 336/443/190 333/444/190
f 334/441/191 338/445/191 335/446/191
f 50/447/192 339/448/192 336/443/192
f 340/449/193 338/445/193 337/450/193
f 52/451/194 342/452/194 339/448/194
f 300/453/1 102/454/1 101/455/1
f 320/456/2 104/457/2 102/454/2
f 315/458/3 106/459/3 104/457/3
f 310/460/4 108/461/4 106/462/4
f 108/461/5 298/463/5 110/464/5
f 110/464/6 295/465/6 112/466/6
f 112/466/7 290/467/7 114/468/7
f 290/467/8 116/469/8 114/468/8
f 289/470/9 118/471/9 116/469/9
f 343/472/10 120/473/10 118/471/10
f 344/474/11 122/475/11 120/473/11
f 345/476/12 124/477/12 122/475/12
f 346/478/13 126/479/13 124/477/13
f 126/479/14 348/480/14 128/481/14
f 128/481/15 349/482/15 130/483/15
f 349/484/16 132/485/16 130/486/16
f 350/487/17 134/488/17 132/485/17
f 351/489/18 136/490/18 134/488/18
f 136/490/195 353/491/195 138/492/195
f 138/492/20 354/493/20 140/494/20
f 140/494/21 340/495/21 142/496/21
f 340/495/22 144/497/22 142/496/22
f 337/498/23 146/499/23 144/497/23
f 334/500/24 148/501/24 146/499/24
f 331/502/25 150/503/25 148/504/25
f 328/505/26 152/506/26 150/503/26
f 325/507/196 154/508/196 152/506/196
f 322/509/28 156/510/28 154/508/28
f 317/511/29 158/512/29 156/510/29
f 312/513/30 160/514/30 158/512/30
f 307/515/32 162/516/32 160/514/32
f 301/517/33 101/455/33 162/516/33
f 355/518/33 303/519/33 302/520/33
f 357/521/32 302/520/32 308/522/32
f 313/523/30 357/521/30 308/522/30
f 318/524/29 358/525/29 313/523/29
f 360/526/28 318/524/28 323/527/28
f 342/528/196 323/527/196 326/529/196
f 329/530/26 342/528/26 326/529/26
f 332/531/25 339/532/25 329/530/25
f 333/533/24 332/534/24 335/535/24
f 338/536/23 333/533/23 335/535/23
f 327/537/197 338/536/197 341/538/197
f 324/539/21 341/538/21 361/540/21
f 319/541/20 361/540/20 362/542/20
f 363/543/195 319/541/195 362/542/195
f 309/544/18 363/543/18 364/545/18
f 304/546/17 364/545/17 365/547/17
f 297/548/16 365/547/16 366/549/16
f 293/550/15 366/551/15 367/552/15
f 368/553/14 293/550/14 367/552/14
f 369/554/13 294/555/13 368/553/13
f 371/556/12 370/557/12 369/554/12
f 374/558/11 371/556/11 373/559/11
f 375/560/10 374/558/10 373/559/10
f 292/561/9 376/562/9 375/560/9
f 291/563/8 377/564/8 292/561/8
f 379/565/7 291/563/7 296/566/7
f 299/567/6 379/565/6 296/566/6
f 306/568/5 380/569/5 299/567/5
f 382/570/4 306/568/4 311/571/4
f 383/572/3 311/573/3 316/574/3
f 384/575/2 316/574/2 321/576/2
f 303/519/1 384/575/1 321/576/1
f 26/577/198 294/392/198 370/578/198
f 343/579/199 292/388/199 375/580/199
f 24/581/200 370/578/200 372/582/200
f 343/579/201 373/583/201 344/584/201
f 22/585/202 372/582/202 374/586/202
f 344/584/203 371/587/203 345/588/203
f 20/589/204 374/586/204 376/590/204
f 345/588/205 369/591/205 346/592/205
f 18/593/206 376/590/206 377/594/206
f 347/595/207 369/591/207 368/596/207
f 16/597/208 377/594/208 378/598/208
f 348/599/209 368/596/209 367/600/209
f 16/597/210 379/601/210 14/602/210
f 349/603/211 367/600/211 366/604/211
f 12/605/212 379/601/212 380/606/212
f 1/607/213 355/608/213 68/609/213
f 349/603/214 365/610/214 350/611/214
f 10/612/215 380/606/215 381/613/215
f 68/609/216 357/614/216 62/615/216
f 350/611/217 364/616/217 351/617/217
f 10/612/218 382/618/218 8/619/218
f 60/620/219 357/614/219 358/621/219
f 351/617/220 363/622/220 352/623/220
f 8/619/221 383/624/221 6/625/221
f 58/626/222 358/621/222 359/627/222
f 352/623/223 362/628/223 353/629/223
f 4/630/224 383/624/224 384/631/224
f 56/632/225 359/627/225 360/633/225
f 354/634/226 362/628/226 361/635/226
f 4/630/227 356/636/227 1/607/227
f 54/637/228 360/633/228 342/452/228
f 340/449/229 361/635/229 341/638/229
f 1/1/1 2/639/1 3/2/1
f 3/2/2 5/5/2 6/4/2
f 5/5/3 7/640/3 8/6/3
f 8/7/4 7/641/4 9/8/4
f 9/8/5 11/11/5 12/10/5
f 11/11/230 13/13/230 14/12/230
f 13/13/7 15/15/7 16/14/7
f 15/15/8 17/642/8 18/16/8
f 18/16/9 17/642/9 19/17/9
f 19/17/10 21/20/10 22/19/10
f 21/20/231 23/22/231 24/21/231
f 23/22/12 25/643/12 26/23/12
f 26/23/13 25/643/13 27/24/13
f 27/24/232 29/27/232 30/26/232
f 29/27/15 31/644/15 32/28/15
f 31/29/16 33/645/16 34/30/16
f 34/30/17 33/645/17 35/32/17
f 35/32/18 37/646/18 38/34/18
f 38/34/19 37/646/19 39/35/19
f 40/36/20 39/35/20 41/37/20
f 41/37/21 43/40/21 44/39/21
f 43/40/197 45/42/197 46/41/197
f 45/42/23 47/44/23 48/43/23
f 47/44/24 49/647/24 50/45/24
f 50/46/25 49/648/25 51/47/25
f 52/48/26 51/47/26 53/49/26
f 53/49/27 55/52/27 56/51/27
f 55/52/28 57/54/28 58/53/28
f 57/54/29 59/649/29 60/55/29
f 60/55/30 59/649/30 61/56/30
f 63/58/31 64/252/31 65/59/31
f 61/56/32 67/62/32 68/61/32
f 67/62/33 2/639/33 1/1/33
f 70/63/34 3/67/34 2/64/34
f 70/63/34 71/69/34 5/66/34
f 72/68/34 7/71/34 5/66/34
f 72/68/34 73/73/34 9/70/34
f 74/72/34 11/75/34 9/70/34
f 74/72/34 75/77/34 13/74/34
f 76/76/34 15/79/34 13/74/34
f 76/76/34 77/81/34 17/78/34
f 78/80/34 19/83/34 17/78/34
f 78/80/34 79/84/34 21/82/34
f 79/84/34 80/86/34 23/85/34
f 80/86/34 81/89/34 25/87/34
f 82/88/34 27/91/34 25/87/34
f 82/88/34 83/93/34 29/90/34
f 84/92/34 31/95/34 29/90/34
f 84/92/34 85/97/34 33/94/34
f 86/96/34 35/99/34 33/94/34
f 87/98/34 37/101/34 35/99/34
f 88/100/34 39/103/34 37/101/34
f 88/100/34 89/105/34 41/102/34
f 90/104/34 43/107/34 41/102/34
f 90/104/34 91/109/34 45/106/34
f 92/108/34 47/111/34 45/106/34
f 93/110/34 49/113/34 47/111/34
f 94/112/34 51/115/34 49/113/34
f 94/112/34 95/117/34 53/114/34
f 64/116/34 55/119/34 53/114/34
f 64/116/34 63/120/34 57/118/34
f 63/120/34 96/122/34 59/121/34
f 96/122/34 97/124/34 61/123/34
f 97/124/34 98/126/34 67/125/34
f 98/126/34 69/65/34 2/64/34
f 100/127/35 101/190/35 102/128/35
f 99/129/35 102/128/35 104/130/35
f 103/131/35 104/130/35 106/132/35
f 105/133/35 106/132/35 108/134/35
f 107/135/35 108/134/35 110/136/35
f 111/138/35 109/137/35 110/136/35
f 113/140/35 111/138/35 112/139/35
f 115/142/35 113/140/35 114/141/35
f 115/142/35 116/143/35 118/144/35
f 117/145/35 118/144/35 120/146/35
f 119/147/35 120/146/35 122/148/35
f 121/149/35 122/148/35 124/150/35
f 123/151/35 124/150/35 126/152/35
f 127/154/35 125/153/35 126/152/35
f 129/156/35 127/154/35 128/155/35
f 131/158/35 129/156/35 130/157/35
f 133/160/35 131/158/35 132/159/35
f 135/162/35 133/160/35 134/161/35
f 137/164/35 135/162/35 136/163/35
f 139/166/35 137/164/35 138/165/35
f 139/166/35 140/167/35 142/168/35
f 141/169/35 142/168/35 144/170/35
f 143/171/35 144/170/35 146/172/35
f 147/174/35 145/173/35 146/172/35
f 147/174/35 148/175/35 150/176/35
f 149/177/35 150/176/35 152/178/35
f 153/180/35 151/179/35 152/178/35
f 153/180/35 154/181/35 156/182/35
f 155/183/35 156/182/35 158/184/35
f 157/185/35 158/184/35 160/186/35
f 159/187/35 160/186/35 162/188/35
f 161/189/35 162/188/35 101/190/35
f 84/191/233 83/253/233 163/192/233
f 70/194/37 165/254/37 166/195/37
f 63/58/38 66/60/38 167/197/38
f 84/191/39 164/193/39 168/199/39
f 71/196/40 166/195/40 169/201/40
f 97/203/41 96/198/41 167/197/41
f 85/200/42 168/199/42 171/205/42
f 72/202/43 169/201/43 172/207/43
f 97/203/234 170/204/234 173/209/234
f 87/211/235 86/206/235 171/205/235
f 73/208/46 172/207/46 175/213/46
f 98/215/47 173/650/47 176/216/47
f 88/218/48 87/211/48 174/212/48
f 74/214/49 175/213/49 178/220/49
f 88/222/50 177/651/50 179/223/50
f 75/221/51 178/220/51 180/225/51
f 90/227/52 89/224/52 179/223/52
f 76/226/53 180/225/53 182/229/53
f 90/227/54 181/228/54 183/231/54
f 78/233/55 77/652/55 182/234/55
f 91/232/56 183/231/56 185/236/56
f 79/238/57 78/233/57 184/235/57
f 92/237/58 185/236/58 187/240/58
f 79/238/59 186/239/59 188/242/59
f 93/241/60 187/240/60 189/244/60
f 80/243/61 188/242/61 190/246/61
f 94/245/62 189/244/62 191/248/62
f 82/250/63 81/247/63 190/246/63
f 64/252/64 95/249/64 191/248/64
f 83/253/65 82/250/65 192/251/65
f 70/194/66 69/217/66 176/216/66
f 194/255/67 195/286/67 196/256/67
f 198/258/68 199/349/68 200/259/68
f 202/261/34 203/291/34 204/262/34
f 206/264/69 207/653/69 208/265/69
f 210/267/70 211/376/70 212/268/70
f 214/270/236 215/274/236 216/271/236
f 217/273/72 218/654/72 215/274/72
f 219/275/237 218/278/237 217/276/237
f 219/275/74 220/280/74 221/277/74
f 222/279/238 221/277/238 220/280/238
f 216/271/76 215/274/76 221/281/76
f 223/284/239 224/288/239 225/285/239
f 223/284/79 226/655/79 227/287/79
f 228/289/240 227/656/240 226/290/240
f 229/292/81 230/295/81 227/287/81
f 231/294/241 230/295/241 229/292/241
f 225/285/83 224/288/83 230/295/83
f 233/296/242 234/300/242 235/297/242
f 236/299/86 237/657/86 234/300/86
f 238/301/243 237/305/243 236/302/243
f 239/304/88 240/310/88 237/305/88
f 241/306/244 240/310/244 239/304/244
f 241/307/90 235/297/90 234/300/90
f 242/311/245 243/658/245 244/312/245
f 245/313/93 246/318/93 243/314/93
f 247/316/246 246/318/246 245/313/246
f 247/316/95 248/320/95 249/317/95
f 250/319/247 249/317/247 248/320/247
f 244/322/97 243/314/97 249/317/97
f 252/323/248 253/327/248 254/324/248
f 255/326/100 256/659/100 253/327/100
f 257/328/249 256/331/249 255/329/249
f 258/330/102 259/337/102 256/331/102
f 260/332/250 259/337/250 258/330/250
f 260/334/104 254/324/104 253/327/104
f 261/338/251 262/341/251 263/339/251
f 264/340/107 265/660/107 262/341/107
f 266/342/252 265/346/252 264/343/252
f 266/342/109 267/348/109 268/345/109
f 269/347/253 268/345/253 267/348/253
f 263/350/111 262/351/111 268/345/111
f 271/352/254 272/356/254 273/353/254
f 274/355/114 275/366/114 272/356/114
f 276/357/255 275/661/255 274/358/255
f 276/359/116 277/363/116 278/360/116
f 279/362/256 278/360/256 277/363/256
f 273/353/118 272/356/118 278/364/118
f 280/367/257 281/369/257 282/368/257
f 283/282/121 284/379/121 281/369/121
f 285/370/258 284/373/258 283/371/258
f 286/372/123 287/662/123 284/373/123
f 288/374/259 287/663/259 286/375/259
f 288/377/125 282/368/125 281/369/125
f 213/272/127 216/271/127 233/296/127
f 216/271/128 222/282/128 236/299/128
f 222/279/129 205/266/129 208/265/129
f 195/286/130 225/285/130 219/275/130
f 225/285/131 231/294/131 220/280/131
f 231/294/132 206/264/132 205/266/132
f 202/261/133 244/312/133 228/289/133
f 244/312/134 250/664/134 229/381/134
f 250/382/135 207/653/135 206/264/135
f 209/269/136 239/304/136 247/316/136
f 239/304/137 238/301/137 248/320/137
f 238/301/138 208/303/138 207/321/138
f 232/298/139 235/297/139 271/352/139
f 235/297/140 241/307/140 274/355/140
f 241/306/141 209/269/141 212/268/141
f 201/263/142 282/368/142 242/311/142
f 282/368/143 288/377/143 245/383/143
f 288/374/144 211/376/144 210/267/144
f 197/260/145 277/363/145 285/370/145
f 277/363/146 276/359/146 286/372/146
f 276/357/147 212/268/147 211/376/147
f 270/354/148 273/353/148 252/323/148
f 273/353/149 279/365/149 255/326/149
f 279/362/150 197/260/150 200/259/150
f 204/262/151 263/339/151 280/367/151
f 263/350/152 269/347/152 283/371/152
f 269/347/153 199/349/153 198/258/153
f 193/333/154 258/330/154 266/342/154
f 258/330/155 257/328/155 267/348/155
f 257/328/156 200/259/156 199/349/156
f 251/325/157 254/324/157 214/270/157
f 254/324/158 260/334/158 217/273/158
f 260/385/159 193/257/159 196/256/159
f 203/291/160 226/290/160 261/338/160
f 226/290/161 223/665/161 264/340/161
f 223/284/162 195/286/162 194/255/162
f 270/354/35 251/325/35 213/272/35
f 290/387/163 291/394/163 292/388/163
f 28/390/164 30/396/164 293/391/164
f 290/387/165 295/397/165 296/393/165
f 32/395/166 297/403/166 293/391/166
f 295/397/167 298/404/167 299/398/167
f 301/399/168 302/407/168 303/400/168
f 34/402/169 304/409/169 297/403/169
f 298/404/170 305/411/170 306/405/170
f 301/399/171 307/412/171 308/406/171
f 36/408/172 309/415/172 304/409/172
f 310/410/173 311/417/173 306/405/173
f 307/412/174 312/418/174 313/413/174
f 38/414/175 314/421/175 309/415/175
f 315/416/176 316/423/176 311/417/176
f 312/418/177 317/424/177 318/419/177
f 38/414/178 40/427/178 319/420/178
f 320/422/179 321/428/179 316/423/179
f 317/424/180 322/430/180 323/425/180
f 42/426/260 324/432/260 319/420/260
f 320/422/182 300/401/182 303/400/182
f 325/429/183 326/434/183 323/425/183
f 44/431/261 327/436/261 324/432/261
f 328/433/185 329/438/185 326/434/185
f 44/431/186 46/440/186 330/435/186
f 328/433/187 331/442/187 332/437/187
f 48/439/188 333/444/188 330/435/188
f 334/441/189 335/446/189 332/437/189
f 48/439/190 50/447/190 336/443/190
f 334/441/191 337/450/191 338/445/191
f 50/447/192 52/451/192 339/448/192
f 340/449/262 341/638/262 338/445/262
f 52/451/194 54/637/194 342/452/194
f 300/453/1 320/456/1 102/454/1
f 320/456/2 315/458/2 104/457/2
f 315/458/263 310/666/263 106/459/263
f 310/460/4 305/667/4 108/461/4
f 108/461/5 305/667/5 298/463/5
f 110/464/230 298/463/230 295/465/230
f 112/466/7 295/465/7 290/467/7
f 290/467/8 289/470/8 116/469/8
f 289/470/9 343/472/9 118/471/9
f 343/472/10 344/474/10 120/473/10
f 344/474/231 345/476/231 122/475/231
f 345/476/12 346/478/12 124/477/12
f 346/478/13 347/668/13 126/479/13
f 126/479/232 347/668/232 348/480/232
f 128/481/15 348/480/15 349/482/15
f 349/484/16 350/487/16 132/485/16
f 350/487/17 351/489/17 134/488/17
f 351/489/18 352/669/18 136/490/18
f 136/490/195 352/669/195 353/491/195
f 138/492/20 353/491/20 354/493/20
f 140/494/21 354/493/21 340/495/21
f 340/495/22 337/498/22 144/497/22
f 337/498/23 334/500/23 146/499/23
f 334/500/24 331/670/24 148/501/24
f 331/502/25 328/505/25 150/503/25
f 328/505/26 325/507/26 152/506/26
f 325/507/27 322/509/27 154/508/27
f 322/509/28 317/511/28 156/510/28
f 317/511/29 312/513/29 158/512/29
f 312/513/264 307/515/264 160/514/264
f 307/515/32 301/517/32 162/516/32
f 301/517/33 300/453/33 101/455/33
f 355/518/33 356/671/33 303/519/33
f 357/521/32 355/518/32 302/520/32
f 313/523/30 358/525/30 357/521/30
f 318/524/29 359/672/29 358/525/29
f 360/526/28 359/672/28 318/524/28
f 342/528/27 360/526/27 323/527/27
f 329/530/26 339/532/26 342/528/26
f 332/531/25 336/673/25 339/532/25
f 333/533/24 336/674/24 332/534/24
f 338/536/23 330/675/23 333/533/23
f 327/537/197 330/675/197 338/536/197
f 324/539/21 327/537/21 341/538/21
f 319/541/20 324/539/20 361/540/20
f 363/543/195 314/676/195 319/541/195
f 309/544/18 314/676/18 363/543/18
f 304/546/17 309/544/17 364/545/17
f 297/548/16 304/546/16 365/547/16
f 293/550/15 297/677/15 366/551/15
f 368/553/14 294/555/14 293/550/14
f 369/554/13 370/557/13 294/555/13
f 371/556/12 372/678/12 370/557/12
f 374/558/231 372/678/231 371/556/231
f 375/560/10 376/562/10 374/558/10
f 292/561/9 377/564/9 376/562/9
f 291/563/8 378/679/8 377/564/8
f 379/565/7 378/679/7 291/563/7
f 299/567/6 380/569/6 379/565/6
f 306/568/5 381/680/5 380/569/5
f 382/570/4 381/680/4 306/568/4
f 383/572/3 382/681/3 311/573/3
f 384/575/2 383/572/2 316/574/2
f 303/519/1 356/671/1 384/575/1
f 26/577/198 28/390/198 294/392/198
f 343/579/199 289/389/199 292/388/199
f 24/581/265 26/577/265 370/578/265
f 343/579/201 375/580/201 373/583/201
f 22/585/202 24/581/202 372/582/202
f 344/584/203 373/583/203 371/587/203
f 20/589/204 22/585/204 374/586/204
f 345/588/205 371/587/205 369/591/205
f 18/593/206 20/589/206 376/590/206
f 347/595/207 346/592/207 369/591/207
f 16/597/208 18/593/208 377/594/208
f 348/599/209 347/595/209 368/596/209
f 16/597/210 378/598/210 379/601/210
f 349/603/211 348/599/211 367/600/211
f 12/605/212 14/602/212 379/601/212
f 1/607/213 356/636/213 355/608/213
f 349/603/214 366/604/214 365/610/214
f 10/612/266 12/605/266 380/606/266
f 68/609/216 355/608/216 357/614/216
f 350/611/217 365/610/217 364/616/217
f 10/612/218 381/613/218 382/618/218
f 60/620/219 62/615/219 357/614/219
f 351/617/220 364/616/220 363/622/220
f 8/619/221 382/618/221 383/624/221
f 58/626/267 60/620/267 358/621/267
f 352/623/223 363/622/223 362/628/223
f 4/630/268 6/625/268 383/624/268
f 56/632/269 58/626/269 359/627/269
f 354/634/226 353/629/226 362/628/226
f 4/630/227 384/631/227 356/636/227
f 54/637/228 56/632/228 360/633/228
f 340/449/229 354/634/229 361/635/229
